<svg width="55" height="56" viewBox="0 0 55 56" fill="none" xmlns="http://www.w3.org/2000/svg">
<path d="M16.0417 18.6667C16.0417 12.2233 21.1718 7 27.5001 7C33.8283 7 38.9584 12.2233 38.9584 18.6667C38.9584 25.11 33.8283 30.3333 27.5001 30.3333C21.1718 30.3333 16.0417 25.11 16.0417 18.6667ZM27.5001 25.6667C31.297 25.6667 34.3751 22.5327 34.3751 18.6667C34.3751 14.8007 31.297 11.6667 27.5001 11.6667C23.7031 11.6667 20.6251 14.8007 20.6251 18.6667C20.6251 22.5327 23.7031 25.6667 27.5001 25.6667Z" fill="#2E3A59"/>
<path d="M14.5365 38.134C11.0983 41.6347 9.16675 46.3826 9.16675 51.3333H13.7501C13.7501 47.6203 15.1987 44.0593 17.7774 41.4338C20.356 38.8083 23.8534 37.3333 27.5001 37.3333C31.1468 37.3333 34.6442 38.8083 37.2228 41.4338C39.8014 44.0593 41.2501 47.6203 41.2501 51.3333H45.8334C45.8334 46.3826 43.9019 41.6347 40.4637 38.134C37.0255 34.6333 32.3624 32.6667 27.5001 32.6667C22.6378 32.6667 17.9746 34.6333 14.5365 38.134Z" fill="#2E3A59"/>
</svg>
